<svg width="20" height="20" viewBox="0 0 20 20" fill="none" xmlns="http://www.w3.org/2000/svg">
<mask id="path-1-inside-1_20_8" fill="white">
<path fill-rule="evenodd" clip-rule="evenodd" d="M10 18.7209C5.30833 13.6855 0.833333 9.36 0.833333 5.62818C0.833333 2.18182 3.39 0.909091 5.23417 0.909091C6.3275 0.909091 8.69333 1.36455 10 4.96091C11.325 1.35364 13.72 0.918182 14.7717 0.918182C16.8883 0.918182 19.1667 2.39182 19.1667 5.62818C19.1667 9.32727 14.8867 13.4691 10 18.7209ZM14.7717 0.0090909C12.9358 0.0090909 11.0667 0.956364 10 2.95273C8.92917 0.947273 7.065 0 5.23417 0C2.58167 0 0 1.98818 0 5.62818C0 9.86545 4.6425 14.2 10 20C15.3583 14.2 20 9.86545 20 5.62818C20 1.98182 17.4208 0.0090909 14.7717 0.0090909"/>
</mask>
<path fill-rule="evenodd" clip-rule="evenodd" d="M10 18.7209C5.30833 13.6855 0.833333 9.36 0.833333 5.62818C0.833333 2.18182 3.39 0.909091 5.23417 0.909091C6.3275 0.909091 8.69333 1.36455 10 4.96091C11.325 1.35364 13.72 0.918182 14.7717 0.918182C16.8883 0.918182 19.1667 2.39182 19.1667 5.62818C19.1667 9.32727 14.8867 13.4691 10 18.7209ZM14.7717 0.0090909C12.9358 0.0090909 11.0667 0.956364 10 2.95273C8.92917 0.947273 7.065 0 5.23417 0C2.58167 0 0 1.98818 0 5.62818C0 9.86545 4.6425 14.2 10 20C15.3583 14.2 20 9.86545 20 5.62818C20 1.98182 17.4208 0.0090909 14.7717 0.0090909" fill="white"/>
<path d="M10 18.7209L9.26836 19.4026L10.0005 20.1884L10.7321 19.4021L10 18.7209ZM10 4.96091L9.06011 5.3024L9.99488 7.87517L10.9387 5.3057L10 4.96091ZM10 2.95273L9.11788 3.42375L9.99972 5.07525L10.882 3.42398L10 2.95273ZM10 20L9.26543 20.6785L9.99994 21.4737L10.7345 20.6786L10 20ZM10.7316 18.0392C8.35703 15.4906 6.11487 13.2018 4.44458 11.0691C2.75242 8.90849 1.83333 7.12915 1.83333 5.62818H-0.166667C-0.166667 7.85903 1.15174 10.1083 2.87001 12.3023C4.61013 14.5241 6.9513 16.9158 9.26836 19.4026L10.7316 18.0392ZM1.83333 5.62818C1.83333 4.17889 2.35836 3.28204 2.99475 2.73398C3.66048 2.16065 4.52018 1.90909 5.23417 1.90909V-0.0909091C4.10398 -0.0909091 2.76327 0.293891 1.68962 1.21852C0.586635 2.16841 -0.166667 3.63111 -0.166667 5.62818H1.83333ZM5.23417 1.90909C5.64644 1.90909 6.31195 1.99504 7.00283 2.43169C7.68244 2.86121 8.47189 3.68341 9.06011 5.3024L10.9399 4.61942C10.2214 2.64205 9.17464 1.43834 8.07134 0.741039C6.9793 0.0508643 5.91523 -0.0909091 5.23417 -0.0909091V1.90909ZM10.9387 5.3057C11.5346 3.68335 12.334 2.86245 13.0182 2.43487C13.7146 1.99976 14.3788 1.91818 14.7717 1.91818V-0.0818182C14.1129 -0.0818182 13.0538 0.0543299 11.9584 0.738767C10.851 1.43073 9.79041 2.63119 9.06132 4.61612L10.9387 5.3057ZM14.7717 1.91818C15.6074 1.91818 16.4545 2.21042 17.0832 2.79305C17.6947 3.35961 18.1667 4.26216 18.1667 5.62818H20.1667C20.1667 3.75784 19.4995 2.30539 18.4426 1.32604C17.403 0.36276 16.0526 -0.0818182 14.7717 -0.0818182V1.91818ZM18.1667 5.62818C18.1667 7.11735 17.2908 8.84521 15.6274 10.9771C13.9818 13.0863 11.7397 15.3832 9.2679 18.0397L10.7321 19.4021C13.147 16.8068 15.4882 14.4069 17.2043 12.2074C18.9026 10.0307 20.1667 7.83811 20.1667 5.62818H18.1667ZM14.7717 -0.990909C12.5825 -0.990909 10.3659 0.145953 9.118 2.48147L10.882 3.42398C11.7675 1.76677 13.2891 1.00909 14.7717 1.00909V-0.990909ZM10.8821 2.48171C9.63127 0.139121 7.42091 -1 5.23417 -1V1C6.70909 1 8.22706 1.75542 9.11788 3.42375L10.8821 2.48171ZM5.23417 -1C2.05391 -1 -1 1.41168 -1 5.62818H1C1 2.56468 3.10942 1 5.23417 1V-1ZM-1 5.62818C-1 8.10156 0.347564 10.4734 2.20349 12.8444C4.06736 15.2256 6.62265 17.8175 9.26543 20.6785L10.7346 19.3215C8.01985 16.3825 5.57514 13.9071 3.77839 11.6117C1.97369 9.30611 1 7.39208 1 5.62818H-1ZM10.7345 20.6786C13.3778 17.8175 15.933 15.2256 17.7968 12.8444C19.6527 10.4734 21 8.10152 21 5.62818H19C19 7.39212 18.0265 9.30618 16.2219 11.6117C14.4253 13.9071 11.9806 16.3825 9.26548 19.3214L10.7345 20.6786ZM21 5.62818C21 1.40331 17.9465 -0.990909 14.7717 -0.990909V1.00909C16.8951 1.00909 19 2.56033 19 5.62818H21Z" fill="black" mask="url(#path-1-inside-1_20_8)"/>
</svg>
