<svg width="38" height="33" viewBox="0 0 38 33" fill="none" xmlns="http://www.w3.org/2000/svg">
<path d="M33.1711 2.23548C31.4341 0.798402 29.2033 0.00864137 26.891 0.00864137C24.2202 0.00864137 21.6349 1.07062 19.799 2.92553C19.469 3.25948 19.1596 3.61795 18.8692 4.00729C16.621 1.01523 12.8645 -0.519975 9.1491 0.158997C6.06603 0.718476 3.64214 2.41274 1.94946 5.19114C-0.438808 9.11383 -0.634269 12.8972 1.37178 16.4369C2.44405 18.3306 3.83523 20.176 5.62525 22.0784C8.90378 25.5635 12.7845 28.8713 17.8388 32.4845C18.1617 32.7164 18.5075 32.8335 18.8684 32.8335C19.4239 32.8335 19.799 32.5526 19.9849 32.4149C24.5455 29.1585 28.1279 26.157 31.26 22.9639C33.0089 21.1818 34.9936 18.9914 36.4449 16.2557C37.0669 15.0869 37.7759 13.5137 37.734 11.7166C37.6406 7.84926 36.1062 4.65936 33.1711 2.23548ZM34.0693 14.9943C32.777 17.4269 30.9537 19.4345 29.3394 21.0789C26.4431 24.0322 23.1313 26.8272 18.8636 29.9087C14.2192 26.5487 10.6242 23.4632 7.5854 20.2314C5.94495 18.4881 4.67801 16.8128 3.71178 15.1075C2.18212 12.409 2.35226 9.701 4.24831 6.58944C5.52396 4.49397 7.33455 3.21991 9.63102 2.80287C10.071 2.72215 10.5165 2.68259 10.9557 2.68259C13.6779 2.68259 16.0892 4.18614 17.4511 6.79678L17.6821 7.23281C17.9195 7.67833 18.4086 7.93156 18.8913 7.94343C19.397 7.93394 19.8536 7.6451 20.076 7.19087C20.5539 6.21593 21.0754 5.45941 21.7117 4.81526C23.0459 3.46918 24.9332 2.69604 26.891 2.69604C28.5789 2.69604 30.2004 3.26818 31.4578 4.30801C33.797 6.23967 34.9698 8.68492 35.045 11.7775C35.0711 12.9447 34.567 14.0573 34.0693 14.9943Z" fill="black"/>
</svg>
