<svg width="36" height="36" viewBox="0 0 36 36" fill="none" xmlns="http://www.w3.org/2000/svg">
<mask id="path-1-inside-1_4_42" fill="white">
<path d="M32.2046 33.7955C32.6439 34.2348 33.3563 34.2348 33.7956 33.7955C34.2349 33.3562 34.2349 32.6438 33.7956 32.2045L32.2046 33.7955ZM25.0796 26.6705L32.2046 33.7955L33.7956 32.2045L26.6706 25.0795L25.0796 26.6705Z"/>
</mask>
<path d="M32.2046 33.7955C32.6439 34.2348 33.3563 34.2348 33.7956 33.7955C34.2349 33.3562 34.2349 32.6438 33.7956 32.2045L32.2046 33.7955ZM25.0796 26.6705L32.2046 33.7955L33.7956 32.2045L26.6706 25.0795L25.0796 26.6705Z" fill="black"/>
<path d="M32.2046 33.7955L29.3762 30.9671L26.5475 33.7958L29.3764 36.6242L32.2046 33.7955ZM33.7956 33.7955L36.6238 36.6242L36.6243 36.6237L33.7956 33.7955ZM33.7956 32.2045L36.6243 29.3763L33.7959 26.5474L30.9672 29.376L33.7956 32.2045ZM25.0796 26.6705L22.2512 23.8421L19.4227 26.6705L22.2512 29.4989L25.0796 26.6705ZM32.2046 33.7955L29.3762 36.6239L32.2046 39.4524L35.033 36.6239L32.2046 33.7955ZM33.7956 32.2045L36.6241 35.0329L39.4525 32.2045L36.6241 29.376L33.7956 32.2045ZM26.6706 25.0795L29.4991 22.251L26.6706 19.4226L23.8422 22.251L26.6706 25.0795ZM29.3764 36.6242C31.3778 38.6252 34.6224 38.6252 36.6238 36.6242L30.9674 30.9668C32.0901 29.8443 33.9101 29.8443 35.0328 30.9668L29.3764 36.6242ZM36.6243 36.6237C38.6254 34.6223 38.6254 31.3777 36.6243 29.3763L30.967 35.0326C29.8445 33.91 29.8445 32.09 30.967 30.9673L36.6243 36.6237ZM30.9672 29.376L29.3762 30.9671L35.033 36.6239L36.6241 35.0329L30.9672 29.376ZM22.2512 29.4989L29.3762 36.6239L35.033 30.9671L27.908 23.8421L22.2512 29.4989ZM35.033 36.6239L36.6241 35.0329L30.9672 29.376L29.3762 30.9671L35.033 36.6239ZM36.6241 29.376L29.4991 22.251L23.8422 27.9079L30.9672 35.0329L36.6241 29.376ZM23.8422 22.251L22.2512 23.8421L27.908 29.4989L29.4991 27.9079L23.8422 22.251Z" fill="black" mask="url(#path-1-inside-1_4_42)"/>
<path d="M16.5 30C23.9558 30 30 23.9558 30 16.5C30 9.04416 23.9558 3 16.5 3C9.04416 3 3 9.04416 3 16.5C3 23.9558 9.04416 30 16.5 30Z" stroke="black" stroke-width="3"/>
</svg>
