<svg width="32" height="38" viewBox="0 0 32 38" fill="none" xmlns="http://www.w3.org/2000/svg">
<path d="M0.319092 35.3333C0.319092 36.4379 1.21452 37.3333 2.31909 37.3333C3.42366 37.3333 4.31909 36.4379 4.31909 35.3333H0.319092ZM27.1524 35.3333C27.1524 36.4379 28.0479 37.3333 29.1524 37.3333C30.257 37.3333 31.1524 36.4379 31.1524 35.3333H27.1524ZM4.31909 35.3333V33.4167H0.319092V35.3333H4.31909ZM11.9024 25.8333H19.5691V21.8333H11.9024V25.8333ZM27.1524 33.4167V35.3333H31.1524V33.4167H27.1524ZM21.4024 10.4167C21.4024 13.5463 18.8654 16.0833 15.7358 16.0833V20.0833C21.0745 20.0833 25.4024 15.7554 25.4024 10.4167H21.4024ZM15.7358 16.0833C12.6061 16.0833 10.0691 13.5463 10.0691 10.4167H6.06909C6.06909 15.7554 10.397 20.0833 15.7358 20.0833V16.0833ZM10.0691 10.4167C10.0691 7.28705 12.6061 4.75 15.7358 4.75V0.75C10.397 0.75 6.06909 5.07791 6.06909 10.4167H10.0691ZM15.7358 4.75C18.8654 4.75 21.4024 7.28705 21.4024 10.4167H25.4024C25.4024 5.07791 21.0745 0.75 15.7358 0.75V4.75ZM19.5691 25.8333C23.7573 25.8333 27.1524 29.2285 27.1524 33.4167H31.1524C31.1524 27.0194 25.9664 21.8333 19.5691 21.8333V25.8333ZM4.31909 33.4167C4.31909 29.2285 7.71427 25.8333 11.9024 25.8333V21.8333C5.50513 21.8333 0.319092 27.0194 0.319092 33.4167H4.31909Z" fill="black"/>
</svg>
