<svg width="47" height="46" viewBox="0 0 47 46" fill="none" xmlns="http://www.w3.org/2000/svg">
<path d="M8.81909 38.3333C8.81909 39.1618 9.49066 39.8333 10.3191 39.8333C11.1475 39.8333 11.8191 39.1618 11.8191 38.3333H8.81909ZM35.6524 38.3333C35.6524 39.1618 36.324 39.8333 37.1524 39.8333C37.9809 39.8333 38.6524 39.1618 38.6524 38.3333H35.6524ZM11.8191 38.3333V36.4167H8.81909V38.3333H11.8191ZM19.9024 28.3333H27.5691V25.3333H19.9024V28.3333ZM35.6524 36.4167V38.3333H38.6524V36.4167H35.6524ZM29.9024 13.4167C29.9024 16.8224 27.1415 19.5833 23.7358 19.5833V22.5833C28.7984 22.5833 32.9024 18.4793 32.9024 13.4167H29.9024ZM23.7358 19.5833C20.33 19.5833 17.5691 16.8224 17.5691 13.4167H14.5691C14.5691 18.4793 18.6731 22.5833 23.7358 22.5833V19.5833ZM17.5691 13.4167C17.5691 10.0109 20.33 7.25 23.7358 7.25V4.25C18.6731 4.25 14.5691 8.35406 14.5691 13.4167H17.5691ZM23.7358 7.25C27.1415 7.25 29.9024 10.0109 29.9024 13.4167H32.9024C32.9024 8.35406 28.7984 4.25 23.7358 4.25V7.25ZM27.5691 28.3333C32.0334 28.3333 35.6524 31.9524 35.6524 36.4167H38.6524C38.6524 30.2955 33.6903 25.3333 27.5691 25.3333V28.3333ZM11.8191 36.4167C11.8191 31.9524 15.4381 28.3333 19.9024 28.3333V25.3333C13.7813 25.3333 8.81909 30.2955 8.81909 36.4167H11.8191Z" fill="black"/>
</svg>
