<svg width="30" height="30" viewBox="0 0 30 30" fill="none" xmlns="http://www.w3.org/2000/svg">
<path d="M26.3711 2.04256C24.9902 0.7295 23.2167 0.00789562 21.3784 0.00789562C19.2551 0.00789562 17.1998 0.978229 15.7402 2.67306C15.4779 2.97818 15.2319 3.30573 15.001 3.66147C13.2137 0.927615 10.2273 -0.475101 7.27355 0.145275C4.82251 0.656472 2.89551 2.20452 1.54983 4.74315C-0.348853 8.32731 -0.504246 11.7842 1.09057 15.0184C1.94303 16.7487 3.04902 18.4348 4.47209 20.173C7.07853 23.3573 10.1637 26.3797 14.1819 29.6811C14.4386 29.893 14.7135 30 15.0004 30C15.442 30 15.7402 29.7433 15.8881 29.6175C19.5137 26.6422 22.3617 23.8996 24.8518 20.9821C26.2421 19.3538 27.82 17.3524 28.9738 14.8528C29.4682 13.7849 30.0319 12.3475 29.9986 10.7054C29.9244 7.17187 28.7045 4.25726 26.3711 2.04256ZM27.0851 13.7003C26.0578 15.9229 24.6083 17.7573 23.3249 19.2598C21.0223 21.9582 18.3895 24.5121 14.9966 27.3276C11.3043 24.2575 8.44623 21.4384 6.03041 18.4854C4.72625 16.8926 3.71903 15.3619 2.95088 13.8037C1.73479 11.3381 1.87005 8.86381 3.37742 6.02078C4.39156 4.10614 5.83098 2.94203 7.65669 2.56098C8.00648 2.48723 8.36067 2.45108 8.70983 2.45108C10.874 2.45108 12.7909 3.82488 13.8736 6.21022L14.0573 6.60862C14.2461 7.01569 14.6349 7.24707 15.0186 7.25792C15.4206 7.24924 15.7836 6.98533 15.9604 6.5703C16.3404 5.6795 16.755 4.98826 17.2608 4.3997C18.3215 3.16979 19.822 2.46337 21.3784 2.46337C22.7203 2.46337 24.0094 2.98614 25.009 3.93623C26.8687 5.70119 27.8011 7.93541 27.8608 10.7611C27.8816 11.8276 27.4809 12.8442 27.0851 13.7003Z" fill="white"/>
</svg>
